# xmcd
#
# Track frame offsets: 
#        150
#        14865
#        28534
#        41153
#        52715
#        63120
#        75930
#        88322
#        104668
#        114458
#        124851
#        136390
#        147079
#        161242
#        176286
#        188917
#        200613
#        214038
#
# Disc length: 3063 seconds
#
# Revision: 1
# Processed by: cddbd v1.5.2PL0 Copyright (c) Steve Scherf et al.
# Submitted via: ExactAudioCopyFreeDBPlugin 1.0
#
DISCID=fd0bf512
DTITLE=Don Gibson - Don Gibson - Famous Country Music Makers
DYEAR=1900
DGENRE=Country
TTITLE0=I Can't Stop Loving You
TTITLE1=Release Me
TTITLE2=I Love You Because
TTITLE3=My Elusive Dreams
TTITLE4=Lonesome Number One
TTITLE5=Too Soon To Know
TTITLE6=Kaw-Liga
TTITLE7=Green, Green Grass Of Home
TTITLE8=Take These Chains From My Heart
TTITLE9=Sea Of Heartbreak
TTITLE10=(I'd Be) A Legend In My Time
TTITLE11=Funny, Familiar, Forgotten Feelings
TTITLE12=You Win Again
TTITLE13=(I Heard That) Lonesome Whistle
TTITLE14=Cold, Cold Heart
TTITLE15=Oh, Lonesome Me
TTITLE16=There Goes My Everything
TTITLE17=Sweet Dreams
EXTD=
EXTT0=
EXTT1=
EXTT2=
EXTT3=
EXTT4=
EXTT5=
EXTT6=
EXTT7=
EXTT8=
EXTT9=
EXTT10=
EXTT11=
EXTT12=
EXTT13=
EXTT14=
EXTT15=
EXTT16=
EXTT17=
PLAYORDER=
